<?xml version="1.0" encoding="utf-8"?>
<!-- Generator: Adobe Illustrator 22.0.1, SVG Export Plug-In . SVG Version: 6.00 Build 0)  -->
<svg version="1.1" id="Layer_1" xmlns="http://www.w3.org/2000/svg" xmlns:xlink="http://www.w3.org/1999/xlink" x="0px" y="0px"
	 viewBox="0 0 1200 373" style="enable-background:new 0 0 1200 373;" xml:space="preserve">
<style type="text/css">
	.st0{fill:#fff;}
</style>
<path class="st0" d="M196.9,272.6h-34.8v-86.7h-23.7v-28.2h23.7v-20.1c0-23.8,10.5-40.9,45.2-40.9c7.3,0,18.9,1.5,18.9,1.5v26.2
	h-12.1c-12.3,0-17.1,3.7-17.1,14.1v19.2h28.8l-2.6,28.2h-26.2L196.9,272.6z M276.7,155.4c-0.5,0-1,0-1.5,0c-32.3,0-47,24.3-47,58.7
	c0,43.4,19.1,60.7,47.3,60.7c16.1,0,26.7-6.8,33.1-19.4v17.1h33.1V157.6h-33.1v17.7C303.3,164,292.4,155.5,276.7,155.4z
	 M285.2,182.5c13.5,0,21.7,9.4,21.7,25.5l0,16.4c0,10.8-6.7,23.5-21.7,23.5c-23,0-22.4-24.9-22.4-33.2
	C262.7,186.9,275,182.5,285.2,182.5L285.2,182.5z M355,215.1c0-14-0.7-59.7,58.9-59.7c23.9,0,33.9,7.6,33.9,7.6l-8,24.9
	c0,0-10-5.5-23-5.5c-16.6,0-27.2,9.6-27.2,26.6l0,12.2c0,16.3,10.2,27.2,27.3,27.2c11.8,0,22.7-5.5,22.7-5.5l8,24.4
	c0,0-9.1,7.6-33.5,7.6C357.3,274.9,355,233.9,355,215.1L355,215.1z M641.7,155.4c32.3,0,47.2,24.3,47.2,58.7
	c0,43.4-19.1,60.7-47.3,60.7c-16.1,0-28-6.8-34.4-19.4v17.1l-32.7,0V100.2l34.7-3v76.6C614.3,160.4,630.8,155.4,641.7,155.4
	L641.7,155.4z M632,182.5c-13.5,0-22.7,9.4-22.7,25.5l0,16.4c0,10.8,6.3,23.5,22.7,23.5c23,0,22.4-24.9,22.4-33.2
	C654.4,186.9,642.1,182.5,632,182.5z M507.9,155.5c-36.6,0-55.9,19.9-55.9,55.4v6.6c0,46,27.1,57.8,59.5,57.8
	c31.4,0,45.7-8.8,45.7-8.8l-6.5-23.4c0,0-16.7,7.1-35,7.1c-18.9,0-27.1-4.8-29.2-23h73.4v-18.8C559.9,170,538.2,155.5,507.9,155.5
	L507.9,155.5z M508.8,178.9c12.7,0,20.9,7.8,20.4,25.8h-42.7C487.3,185.8,496.1,178.9,508.8,178.9L508.8,178.9z M758.1,155.3
	c-37.6,0-57.3,21.2-57.3,59.1c0,52.1,34.1,60.4,57.4,60.4c34.1,0,56.8-18.4,56.8-60C815,171.6,789.5,155.3,758.1,155.3z
	 M757.6,182.6c16.5,0,23.1,12.4,23.1,26.4v12.1c0,17-9.2,26.9-23.1,26.9c-13.1,0-22.2-9.2-22.2-26.9v-12.1
	C735.3,190.2,746.3,182.6,757.6,182.6z M884.1,155.3c-37.6,0-57.3,21.2-57.3,59.1c0,52.1,34.1,60.4,57.4,60.4
	c34.1,0,56.8-18.4,56.8-60C941,171.6,915.5,155.3,884.1,155.3z M883.6,182.6c16.5,0,23.1,12.4,23.1,26.4v12.1
	c0,17-9.2,26.9-23.1,26.9c-13.1,0-22.2-9.2-22.2-26.9v-12.1C861.3,190.2,872.3,182.6,883.6,182.6z M954.1,272.6V100.2l34.8-3v115.6
	l34.5-55.1h36.7l-36,57l37.4,57.9h-36.8l-35.8-56.2v56.2L954.1,272.6z"/>
</svg>
