<?xml version="1.0" encoding="utf-8"?>
<!-- Generator: Adobe Illustrator 22.0.1, SVG Export Plug-In . SVG Version: 6.00 Build 0)  -->
<svg version="1.1" id="Layer_1" xmlns="http://www.w3.org/2000/svg" xmlns:xlink="http://www.w3.org/1999/xlink" x="0px" y="0px"
	 viewBox="0 0 1920 813.8" style="enable-background:new 0 0 1920 813.8;" xml:space="preserve">
<style type="text/css">
	.st0{fill:#EE1D52;}
	.st1{fill:#FFFFFF;}
	.st2{fill:#69C9D0;}
	.st3{fill:none;}
</style>
<path d="M0,4.7h1920v805H0V4.7z"/>
<g>
	<path class="st0" d="M300,505.5l1.6,4.6C301.4,509.6,300.8,508,300,505.5z M223.8,472.6c2.9-24.9,12.7-38.8,31.1-53.1
		c26.4-19.3,59.3-8.4,59.3-8.4v-64.9c8-0.2,16,0.3,23.9,1.5v83.5c0,0-32.9-10.9-59.3,8.4c-18.4,14.3-28.2,28.2-31.1,53.1
		c-0.1,13.5,2.3,31.2,13.5,46.5c-2.8-1.5-5.6-3.2-8.5-5.1C228.2,516.8,223.7,490.9,223.8,472.6z M474.2,226.2
		c-18.1-20.7-25-41.7-27.5-56.4h22.8c0,0-4.5,38.6,28.6,76.5l0.5,0.5C489.7,241,481.5,234,474.2,226.2z"/>
	<path class="st0" d="M584.1,285v81.8c0,0-29.1-1.2-50.7-6.9c-30.1-8-49.4-20.3-49.4-20.3s-13.4-8.8-14.4-9.4v169.1
		c0,9.4-2.5,32.9-10,52.5c-9.8,25.6-25,42.5-27.8,45.9c0,0-18.5,22.8-51,38.1c-29.3,13.8-55.1,13.5-62.8,13.8
		c0,0-44.5,1.8-84.6-25.3c-8.7-6-16.8-12.8-24.2-20.3l0.2,0.1c40.1,27.2,84.6,25.3,84.6,25.3c7.7-0.3,33.5,0,62.8-13.8
		c32.5-15.3,51-38.1,51-38.1c2.8-3.4,18-20.3,27.8-45.9c7.5-19.6,10-43.1,10-52.5v-169c1.1,0.6,14.4,9.4,14.4,9.4
		s19.3,12.3,49.4,20.3c21.6,5.7,50.7,6.9,50.7,6.9v-64.1C570.1,285,578.6,285.6,584.1,285L584.1,285z"/>
</g>
<path class="st1" d="M560.2,282.6v64.1c0,0-29.1-1.2-50.7-6.9c-30.1-8-49.4-20.3-49.4-20.3s-13.4-8.8-14.4-9.4v169
	c0,9.4-2.5,32.9-10,52.5c-9.8,25.7-25,42.5-27.8,45.9c0,0-18.5,22.8-51,38.1c-29.3,13.8-55.1,13.5-62.8,13.8c0,0-44.5,1.8-84.6-25.3
	l-0.2-0.1c-4.2-4.3-8.2-8.8-11.9-13.5c-12.8-16.3-20.6-35.5-22.6-41c0,0,0,0,0-0.1c-3.2-9.5-9.8-32.5-8.9-54.6
	c1.6-39.2,14.8-63.2,18.3-69.2c9.2-16.4,21.3-31.1,35.5-43.4c12.6-10.6,26.9-19.1,42.2-25c9.6-4,19.6-6.9,29.8-8.8
	c7.5-1.3,15-2.1,22.6-2.3v64.9c0,0-32.9-10.9-59.3,8.4c-18.4,14.3-28.2,28.2-31.1,53.1c-0.1,18.3,4.4,44.2,29,61.5
	c2.9,1.9,5.7,3.6,8.5,5.1c4.3,5.8,9.5,10.9,15.5,15c24.1,15.9,44.2,17,70,6.7c17.2-6.8,30.1-22.4,36.2-39.6
	c3.8-10.8,3.7-21.6,3.7-32.8V169.8h60c2.5,14.7,9.3,35.6,27.5,56.4c7.3,7.8,15.5,14.8,24.4,20.6c2.6,2.9,16.1,16.9,33.5,25.6
	C541,276.9,550.4,280.3,560.2,282.6z"/>
<path class="st2" d="M150.8,529.6L150.8,529.6l1.5,4.3C152.1,533.4,151.6,531.9,150.8,529.6z"/>
<path class="st2" d="M261.8,357.2c-15.4,5.9-29.6,14.4-42.2,25c-14.3,12.3-26.3,27-35.5,43.5c-3.5,6-16.7,30-18.3,69.2
	c-0.9,22.2,5.8,45.1,8.9,54.6c0,0,0,0,0,0.1c2,5.4,9.8,24.7,22.6,41c3.7,4.7,7.7,9.2,11.9,13.5c-13.6-9.4-25.6-20.7-35.9-33.6
	c-12.7-16.1-20.5-35.2-22.5-40.8l-0.1-0.1v-0.1c-3.2-9.5-9.9-32.4-8.9-54.7c1.6-39.2,14.8-63.2,18.3-69.2
	c9.2-16.4,21.2-31.2,35.5-43.5c12.6-10.6,26.9-19.1,42.2-25c9.6-4,19.6-6.9,29.8-8.8c15.4-2.7,31.1-2.9,46.6-0.7v18.5
	c-7.6,0.1-15.1,0.9-22.6,2.2C281.4,350.2,271.4,353.2,261.8,357.2L261.8,357.2z"/>
<path class="st2" d="M446.7,169.8h-60v318.6c0,11.2,0,22-3.7,32.8c-6.1,17.2-19,32.8-36.1,39.7c-25.8,10.4-46,9.2-70-6.7
	c-6-4.1-11.2-9.2-15.5-15c20.5,10.9,38.8,10.7,61.5,1.6c17.1-6.9,30.1-22.5,36.1-39.7c3.8-10.8,3.7-21.6,3.7-32.8V149.7h82.9
	C445.6,149.7,444.6,157.6,446.7,169.8L446.7,169.8z M560.2,264.9v17.7c-9.7-2.3-19.2-5.7-28.1-10.2c-17.3-8.7-30.8-22.7-33.5-25.6
	c3.1,2,6.2,3.8,9.5,5.5C529.2,262.8,549.9,266,560.2,264.9z"/>
<path class="st3" d="M1448.7,444.5c-1.3-4.4-2-8.9-2-13.5v-0.3C1446.7,435.4,1447.4,440,1448.7,444.5z M1547.9,430.7v0.3
	c0,4.6-0.7,9.1-2,13.5C1547.2,440,1547.9,435.4,1547.9,430.7z"/>
<path class="st2" d="M1446.7,431.1c0,4.6,0.7,9.1,2,13.5c0.1,0.3,0.2,0.6,0.3,0.9c6.6,21.2,26.2,35.6,48.3,35.6v51.2
	c-24.9,0-42.8,0.9-69.9-15.2c-31-18.3-48.4-51.8-48.4-86.6c0-35.9,19.5-71.8,52.5-89.1c23.9-12.6,42.2-12.6,65.8-12.6v51.2
	c-27.9,0-50.6,22.7-50.6,50.6L1446.7,431.1z"/>
<path class="st0" d="M1548.3,431.1c0,4.6-0.7,9.1-2,13.5c-0.1,0.3-0.2,0.6-0.3,0.9c-6.6,21.2-26.2,35.6-48.3,35.6v51.2
	c24.9,0,42.8,0.9,69.9-15.2c31-18.3,48.4-51.8,48.4-86.6c0-35.9-19.5-71.8-52.5-89.1c-23.9-12.6-42.2-12.6-65.8-12.6v51.2
	c27.9,0,50.6,22.7,50.6,50.6L1548.3,431.1z"/>
<path class="st1" d="M714.1,282.2h187.4l-17.3,51.6h-49v197.3h-60.4V333.8h-60.7L714.1,282.2z M1210.8,282.2v51.6h60.7v197.3h60.3
	V333.8h49l17.4-51.6H1210.8z M942.2,341c16.1,0,29.2-13.1,29.2-29.2s-13.1-29.2-29.2-29.2S913,295.7,913,311.8S926.1,341,942.2,341
	L942.2,341z M913,531.1h59.2V361.6H913V531.1z M1185,339.5h-69.2l-59.6,59.7V282.4h-58.8l-0.2,248.7h59.4v-64.8l18.5-16.7l57.6,81.5
	h63.4l-83.4-119.3L1185,339.5z M1752.5,411.9l72.3-72.4h-69.2l-59.6,59.7V282.4h-58.8l-0.2,248.7h59.4v-64.8l18.5-16.7l57.6,81.5
	h63.4L1752.5,411.9z M1600.4,430.4c0,56.2-46.2,101.8-103.2,101.8s-103.1-45.6-103.1-101.8s46.2-101.8,103.1-101.8
	S1600.5,374.2,1600.4,430.4L1600.4,430.4z M1547.9,430.4c0-27.9-22.7-50.6-50.6-50.6c-27.9,0-50.6,22.7-50.6,50.6
	c0,27.9,22.7,50.6,50.6,50.6l0,0C1525.2,481,1547.9,458.4,1547.9,430.4C1547.9,430.4,1547.9,430.4,1547.9,430.4L1547.9,430.4z"/>
</svg>
